<svg xmlns="http://www.w3.org/2000/svg" width="18.34" height="15.125" viewBox="0 0 18.34 15.125">
  <defs>
    <style>
      .cls-1 {
        fill: #ebebeb;
        fill-rule: evenodd;
      }
    </style>
  </defs>
  <path id="twitter" class="cls-1" d="M1392.51,635.524l1.85-.369a15.665,15.665,0,0,1-1.85,1.845,0.017,0.017,0,0,0-.01,0,5.757,5.757,0,0,0,.01,1.109c-3.53,15.21-16.52,8.486-16.52,8.486,4.73,0.125,5.15-1.845,5.15-1.845-2.77-.42-3.3-2.213-3.3-2.213a1.158,1.158,0,0,0,1.47-.369,3.335,3.335,0,0,1-2.57-3.69,3.483,3.483,0,0,0,1.8.7c-0.34-.394-3.13-3.756-1.44-5.5a9.151,9.151,0,0,0,7.43,4.035l0.36-.091a4.292,4.292,0,0,1-.08-0.809,3.86,3.86,0,0,1,3.85-3.874c2.56,0,3.12,1.476,3.12,1.476l1.83-1.107S1393.41,635.16,1392.51,635.524Z" transform="translate(-1376 -632.938)"/>
</svg>
