<svg xmlns="http://www.w3.org/2000/svg" width="18.41" height="15.937" viewBox="0 0 18.41 15.937">
  <defs>
    <style>
      .cls-1 {
        fill: #ebebeb;
        fill-rule: evenodd;
      }
    </style>
  </defs>
  <path id="vimeo" class="cls-1" d="M1387.21,686.813c-0.01.457,0.57,0.1,1.1,0.369s1.59,0.567.73,2.951c0,0-1.2,3.594-2.2,3.321,0,0-1.55.062-1.83-3.321s-0.86-6.817-2.57-6.641-4.18,1.842-5.86,4.058c0,0,.47,1.158,1.09,1.107s0.59-.961,1.1-0.738,1.31,0.187,1.84,3.321a16.062,16.062,0,0,0,2.2,6.272,2.534,2.534,0,0,0,2.57,1.49c0.76,0,3.22-1.778,5.5-4.81s4.04-6.688,4.04-7.379,0.65-3.241-1.84-3.69S1387.24,685.188,1387.21,686.813Z" transform="translate(-1376.59 -683.063)"/>
</svg>
